<?xml version="1.0"?>
<svg xmlns="http://www.w3.org/2000/svg" xmlns:xlink="http://www.w3.org/1999/xlink" xmlns:svgjs="http://svgjs.com/svgjs" version="1.1" width="512" height="512" x="0" y="0" viewBox="0 0 64 64" style="enable-background:new 0 0 512 512" xml:space="preserve" class=""><g><g xmlns="http://www.w3.org/2000/svg" id="customer_service-call_center-woman-headset-headphone" data-name="customer service-call center-woman-headset-headphone"><path d="M28,36h2a4,4,0,0,0-8,0h2a2,2,0,0,1,4,0Z" fill="#679e34" data-original="#000000" style="" class=""/><path d="M38,32a4,4,0,0,0-4,4h2a2,2,0,0,1,4,0h2A4,4,0,0,0,38,32Z" fill="#679e34" data-original="#000000" style="" class=""/><path d="M32,46c-1.626,0-3-.916-3-2H27c0,2.206,2.243,4,5,4s5-1.794,5-4H35C35,45.084,33.626,46,32,46Z" fill="#679e34" data-original="#000000" style="" class=""/><path d="M60,31.18V23A21.023,21.023,0,0,0,39,2H25A21.023,21.023,0,0,0,4,23v8.18A3.01,3.01,0,0,0,2,34v6a3.009,3.009,0,0,0,3,3v8a9.014,9.014,0,0,0,9,9H25.18A3.01,3.01,0,0,0,28,62h8a3,3,0,0,0,0-6H28a3.01,3.01,0,0,0-2.82,2H14a7.008,7.008,0,0,1-7-7V43H8.42A5.014,5.014,0,0,0,13,46h4a13.031,13.031,0,0,0,12,8h6a13.031,13.031,0,0,0,12-8h4a5.014,5.014,0,0,0,4.58-3H59a3.009,3.009,0,0,0,3-3V34A3.01,3.01,0,0,0,60,31.18ZM28,58h8a1,1,0,0,1,0,2H28a1,1,0,0,1,0-2ZM8,41H5a1,1,0,0,1-1-1V34a1,1,0,0,1,1-1H8Zm5,3a3.009,3.009,0,0,1-3-3V33a3.009,3.009,0,0,1,3-3h3V41a12.9,12.9,0,0,0,.36,3Zm33-3A11.007,11.007,0,0,1,35,52H29A11.007,11.007,0,0,1,18,41V29.74l18.86-5.66L46,29.57Zm0-13.77-4-2.4V19H40v4.63l-2-1.2V16H36v6.26l-18,5.4V23A11.007,11.007,0,0,1,29,12h6A11.007,11.007,0,0,1,46,23ZM54,41a3.009,3.009,0,0,1-3,3H47.64A12.9,12.9,0,0,0,48,41V30h3a3.009,3.009,0,0,1,3,3Zm0-11.97A4.924,4.924,0,0,0,51,28H48V23A13.012,13.012,0,0,0,35,10H29A13.012,13.012,0,0,0,16,23v5H13a4.924,4.924,0,0,0-3,1.03V23A15.018,15.018,0,0,1,25,8H39A15.018,15.018,0,0,1,54,23ZM39,6H25A17.024,17.024,0,0,0,8,23v8H6V23A19.017,19.017,0,0,1,25,4H39A19.017,19.017,0,0,1,58,23v8H56V23A17.024,17.024,0,0,0,39,6ZM60,40a1,1,0,0,1-1,1H56V33h3a1,1,0,0,1,1,1Z" fill="#679e34" data-original="#000000" style="" class=""/></g></g></svg>
