<?xml version="1.0"?>
<svg xmlns="http://www.w3.org/2000/svg" xmlns:xlink="http://www.w3.org/1999/xlink" xmlns:svgjs="http://svgjs.com/svgjs" version="1.1" width="512" height="512" x="0" y="0" viewBox="0 0 512 512" style="enable-background:new 0 0 512 512" xml:space="preserve" class=""><g><g xmlns="http://www.w3.org/2000/svg"><path d="m467 61h-422c-24.813 0-45 20.187-45 45v150c0 8.284 6.716 15 15 15h45v90h-45c-8.284 0-15 6.716-15 15v30c0 24.813 20.187 45 45 45h422c24.813 0 45-20.187 45-45v-300c0-24.813-20.187-45-45-45zm-437 45c0-8.271 6.729-15 15-15s15 6.729 15 15v135h-30zm0 285h30v15c0 8.271-6.729 15-15 15s-15-6.729-15-15zm452 15c0 8.271-6.729 15-15 15h-379.58c1.665-4.695 2.58-9.742 2.58-15v-300c0-5.258-.915-10.305-2.58-15h379.58c8.271 0 15 6.729 15 15z" fill="#679e34" data-original="#000000" style="" class=""/><path d="m436 121h-300c-8.284 0-15 6.716-15 15v60c0 8.284 6.716 15 15 15h300c8.284 0 15-6.716 15-15v-60c0-8.284-6.716-15-15-15zm-15 60h-270v-30h270z" fill="#679e34" data-original="#000000" style="" class=""/><path d="m436 241h-120c-8.284 0-15 6.716-15 15s6.716 15 15 15h120c8.284 0 15-6.716 15-15s-6.716-15-15-15z" fill="#679e34" data-original="#000000" style="" class=""/><path d="m436 301h-120c-8.284 0-15 6.716-15 15s6.716 15 15 15h120c8.284 0 15-6.716 15-15s-6.716-15-15-15z" fill="#679e34" data-original="#000000" style="" class=""/><path d="m256 241h-120c-8.284 0-15 6.716-15 15v120c0 8.284 6.716 15 15 15h120c8.284 0 15-6.716 15-15v-120c0-8.284-6.716-15-15-15zm-15 120h-90v-90h90z" fill="#679e34" data-original="#000000" style="" class=""/><path d="m436 361h-120c-8.284 0-15 6.716-15 15s6.716 15 15 15h120c8.284 0 15-6.716 15-15s-6.716-15-15-15z" fill="#679e34" data-original="#000000" style="" class=""/></g></g></svg>
