<?xml version="1.0"?>
<svg xmlns="http://www.w3.org/2000/svg" xmlns:xlink="http://www.w3.org/1999/xlink" xmlns:svgjs="http://svgjs.com/svgjs" version="1.1" width="512" height="512" x="0" y="0" viewBox="0 0 512 512" style="enable-background:new 0 0 512 512" xml:space="preserve" class=""><g><g xmlns="http://www.w3.org/2000/svg"><path d="m511.394 470.546-37.208-86.817c-3.619-8.444-10.091-15.045-18.003-18.911 6.683-6.776 10.817-16.072 10.817-26.318v-240c0-20.678-16.822-37.5-37.5-37.5h-68.167v-52.5c0-4.143-3.358-7.5-7.5-7.5h-195.666c-4.142 0-7.5 3.357-7.5 7.5v52.5h-68.167c-20.678 0-37.5 16.822-37.5 37.5v240c0 10.246 4.134 19.542 10.817 26.317-7.912 3.866-14.385 10.468-18.003 18.911l-37.208 86.818c-.399.933-.606 1.938-.606 2.954 0 20.678 16.822 37.5 37.5 37.5h437c20.678 0 37.5-16.822 37.5-37.5 0-1.016-.207-2.021-.606-2.954zm-225.414-454.546h60.354v45h-60.354c4.719-6.272 7.52-14.064 7.52-22.5s-2.801-16.228-7.52-22.5zm29.063 60c-3.096 8.729-11.432 15-21.21 15h-75.667c-9.777 0-18.114-6.271-21.21-15zm-59.043-60c12.407 0 22.5 10.094 22.5 22.5s-10.093 22.5-22.5 22.5-22.5-10.094-22.5-22.5 10.093-22.5 22.5-22.5zm-90.333 0h60.354c-4.719 6.272-7.52 14.064-7.52 22.5s2.801 16.228 7.52 22.5h-60.354zm-105.667 82.5c0-12.406 10.093-22.5 22.5-22.5h98.921c1.129 5.539 3.483 10.637 6.766 15h-105.687c-4.142 0-7.5 3.357-7.5 7.5v105c0 4.143 3.358 7.5 7.5 7.5s7.5-3.357 7.5-7.5v-97.5h332v225h-332v-97.5c0-4.143-3.358-7.5-7.5-7.5s-7.5 3.357-7.5 7.5v105c0 4.143 3.358 7.5 7.5 7.5h347c4.142 0 7.5-3.357 7.5-7.5v-240c0-4.143-3.358-7.5-7.5-7.5h-105.687c3.282-4.363 5.637-9.461 6.766-15h98.921c12.407 0 22.5 10.094 22.5 22.5v240c0 12.406-10.093 22.5-22.5 22.5h-347c-12.407 0-22.5-10.094-22.5-22.5zm-8.399 291.137c3.551-8.284 11.669-13.637 20.681-13.637h367.437c9.012 0 17.13 5.353 20.681 13.637l32.726 76.363h-474.252zm422.899 106.363h-437c-9.776 0-18.107-6.272-21.203-15h479.407c-3.097 8.728-11.428 15-21.204 15z" fill="#679e34" data-original="#000000" style=""/><circle cx="256" cy="38.5" r="7.5" fill="#679e34" data-original="#000000" style=""/><path d="m446.611 395.546c-1.182-2.758-3.894-4.546-6.894-4.546l-367.436.001c-3 0-5.712 1.788-6.894 4.546l-12.857 29.999c-.993 2.317-.755 4.979.632 7.083s3.742 3.371 6.263 3.371h393.15c2.521 0 4.874-1.267 6.261-3.371s1.625-4.766.632-7.083zm-375.812 25.454 6.428-14.999 357.545-.001 6.429 15z" fill="#679e34" data-original="#000000" style=""/><path d="m173.167 316h165.667c4.142 0 7.5-3.357 7.5-7.5v-30c0-20.678-16.822-37.5-37.5-37.5h-105.667c-20.678 0-37.5 16.822-37.5 37.5v30c0 4.143 3.357 7.5 7.5 7.5zm7.5-37.5c0-12.406 10.093-22.5 22.5-22.5h105.667c12.407 0 22.5 10.094 22.5 22.5v22.5h-15.001v-22.5c0-4.143-3.358-7.5-7.5-7.5s-7.5 3.357-7.5 7.5v22.5h-90.666v-22.5c0-4.143-3.358-7.5-7.5-7.5s-7.5 3.357-7.5 7.5v22.5h-15z" fill="#679e34" data-original="#000000" style=""/><path d="m255.671 226c28.949 0 52.5-23.552 52.5-52.5s-23.551-52.5-52.5-52.5-52.5 23.552-52.5 52.5 23.551 52.5 52.5 52.5zm0-90c20.678 0 37.5 16.822 37.5 37.5s-16.822 37.5-37.5 37.5-37.5-16.822-37.5-37.5 16.822-37.5 37.5-37.5z" fill="#679e34" data-original="#000000" style=""/></g></g></svg>
