<svg id="Ñëîé_1" data-name="Ñëîé 1" xmlns="http://www.w3.org/2000/svg" viewBox="0 0 49.94 107.9"><defs><style>.cls-1{fill:#f5e080}</style></defs><path class="cls-1" d="M20.27 86.21L13.72 74.6l-2.73-15.71 1.41-14.91 5.05-16.42 4.04-8.19 6.82-8.59.88-1.08.43-.48 2.58-2-2.96 3.54-6.91 8.53-4.12 8.15L13 43.81 11.45 58.7l2.57 15.73 6.45 11.68 5.9 7.98 8.43 5.96-8.55-5.92-5.98-7.92z"/><path class="cls-1" d="M17.73 84.97l-4.33-8.99-3.11-12.78.44-11.46 1.82-11.99 3.42-10.45 6.82-12.49 6.4-7.11-.88 1.08-6.82 8.59-4.04 8.19-5.05 16.42-1.41 14.91 2.73 15.71 6.55 11.61 5.98 7.92 8.55 5.92.17.12 9.13 5 5.84 2.61-2.17.12-4.79-1.97-8.78-4.13-10.22-8.75-6.25-8.08z"/><path class="cls-1" d="M34.3 82.94l4.26 10.04-.18 5.38-.56.57-3.57-14.87.05-1.12z"/><path class="cls-1" d="M33.76 94.66l-.01-.03.5-10.57 3.57 14.87-1.41 1.43-2.65-5.7zm1.96 6.4l-1.96-6.4 2.65 5.7-.69.7zm-6.29-22.07l2.08 8.53-.27 1.74-2.96-6.36 1.15-3.91zM27.9 94.31l1.06 1.21-.73.57-.33-1.78z"/><path class="cls-1" d="M28.96 95.52l-1.06-1.21-.98-5.39 1.32-5.9.04-.12 2.96 6.36-.77 5.08-1.51 1.18zm-2.78-20.56l.08 3.62-1.13-2.44 1.05-1.18zm-4.34 15.05l.06-2.51 1.46 1.65-1.52.86z"/><path class="cls-1" d="M24.79 88.34l-1.43.81-1.46-1.65.09-3.45 2.21-6.88.93-1.03 1.13 2.44.1 4.08-1.57 5.68zm-1.43-19.26l.39-.52-.09.86-.29 2.94-.94-2.02.93-1.26z"/><path class="cls-1" d="M21.54 79.87L17.9 81.7l.62-6.1 3.91-5.26.94 2.02-.23 2.3-1.6 5.21zM17.78 66.4l-1.85 6.95-1.53.87-.2-.26 2.48-6.66 1.1-.9z"/><path class="cls-1" d="M17.78 66.4l4.05-3.34-1.5 5.15-.08.3-1.64 2.22-1.41 1.9-1.27.72 1.85-6.95zm-3.38 7.82l-.38.21.18-.47.2.26zm5.64-16.34l-.74 2.77-5.88 2.31 1.28-2.33 5.34-2.75z"/><path class="cls-1" d="M18.69 62.96l-3.73 2.56-3.03.16 1.49-2.72 5.88-2.31-.61 2.31zm1.35-5.08l1.7-.88-1.57 3.31-.87.34.74-2.77z"/><path class="cls-1" d="M20.17 60.31l-1.16 2.43-.32.22.61-2.31.87-.34zm-5.92-6.18l1.44-1.25 2.92-1.27-1.88 3.1-2.48-.58z"/><path class="cls-1" d="M15.44 56.86l-4.66.25 3.47-2.98 2.48.58-1.29 2.15z"/><path class="cls-1" d="M18.75 55.18l-1.22 1.57-2.09.11 1.29-2.15 2.02.47zm-.14-3.57l3.5-1.52.88-.39-1.19 1.54-3.05 3.94-2.02-.47 1.88-3.1zm6.31-7.49l-5.7 4.73-1.44.39 1.1-4.65 6.04-.47z"/><path class="cls-1" d="M17.78 49.24l-1.03.28-.24-4.74 2.37-.19-1.1 4.65zm-3.85 1.05l-2.11-2.34 4.38-3.14.31-.03.24 4.74-2.82.77zm11.85-13.54l.41.88-1.89 1.38-.32.18-.79-2.27 2.59-.17z"/><path class="cls-1" d="M27.56 36.63l-1.37 1-.41-.88 1.78-.12zm-4.37.29l.79 2.27-4.39 2.38 1.07-4.48 2.53-.17z"/><path class="cls-1" d="M20.66 37.09l-1.07 4.48-.28.16-3-.68-.1-1.98 3.09-1.89 1.36-.09z"/><path class="cls-1" d="M13.88 40.49l2.33-1.42.1 1.98-2.43-.56zm16.33-11.12l-4.49 3.27-2.43.72 4.11-4.28 2.81.29zm-10.7 5.11l-3.62-2.26 1.58-.97 3.05 2.94-1.01.29zm5.35-5.66l2.54.26-4.11 4.28-.94.28 2.51-4.82z"/><path class="cls-1" d="M24.23 28.75l.63.07-2.51 4.82-1.83.55-3.05-2.93 2.15-1.33 4.61-1.18zm6.52-5.94l-.8 1.99-.66.42-2.96.77 1.73-3.32 2.69.14z"/><path class="cls-1" d="M32.91 22.93l-2.96 1.87.8-1.99 2.16.12zm-14.02 1.79l4.44-1.99 3.03-.16 1.7.1-1.73 3.32-2.67.69-4.77-1.96zm10.7-5l1.33-2.54.51-.3 1.76-.11-.72 1.79-1.15.72-1.73.44z"/><path class="cls-1" d="M35.61 16.61l-3.14 1.95.72-1.79 2.42-.16zm-6.02 3.11l-2.88.74-1.23-.17 5.44-3.11-1.33 2.54z"/><path class="cls-1" d="M22.54 18.81l4.7-1.65 3.82-.25-.14.27-5.44 3.11-1.94-.25-1-1.23zm8.38-1.63l.14-.27.37-.03-.51.3zm3.29-6.33l1.4-.08-.76 1.9-1.86.52 1.22-2.34z"/><path class="cls-1" d="M38.33 10.63l-2.02 1.62-1.46.42.76-1.9 2.72-.14zm-9.87 3.09l-1.15-1.03.15-.16 4.24-1.55 2.51-.13-1.22 2.34-1.74.5-2.79.03zm-1.15-1.03l-.08-.08.23-.08-.15.16zm-2.97 93.87l-3.57-1.45 3.08-1.6 1.42 3.06-.93-.01zm3.92-5.34l1.1.13 4.74 3-.53.48-6.22-3.14.91-.47z"/><path class="cls-1" d="M33.57 104.83l-1.99 1.81-6.31-.07-1.42-3.06 3.5-1.82 6.22 3.14zm2.91-2.64l-1.85-.22-5.27-.62 4.74 3 1.46-1.33.92-.83zm-14.82-3.37l-5.71-2.88 1.51-.45 2.56-.05.09.05 1.55 3.33zm.4.86l-3.45-.05-5.86-2.73 3.2-.96 5.71 2.88.4.86z"/><path class="cls-1" d="M25.38 99.74l-1.97-.04-1.75-.88-1.55-3.33 5.93 3.75-.66.5zm-1.97-.04l-1.35-.02-.4-.86 1.75.88z"/><path class="cls-1" d="M20.08 95.44l4.14-.07 4.64 1.74-2.82 2.13-5.93-3.75-.09-.05h.06zm-5.8-2.7L7.3 88.55l1.48-.22 6.99 4.42-1.49-.01z"/><path class="cls-1" d="M15.63 87.3l.83.36 2.38 5.12-3.07-.03-6.99-4.42 1.99-.31 4.86-.72zm6.93 3.14l-2.67 2.35-1.05-.01-2.38-5.12 5.38 2.35.72.43zM3.26 78.27l2.15.05-1.15 1.02-1-1.07zm9.29 1.01l2.34 5.02-1.26.42-6.54-2.34-2.83-3.04 1.15-1.02 3.81.1 3.33.86z"/><path class="cls-1" d="M13.36 79.48l3.02 2.07 1.03 1.92-2.52.83-2.34-5.02.81.2zM2.8 67.13l-1.44.57-.95-1.53 2.39.96zm4.52 1.82l.56.42-2.18 3.62-2.49-2.3-1.85-2.99 1.44-.57 4.52 1.82zm4.25 3.16l1.68 3.18-5.75-.63-.2-.19 3.5-2.93.77.57z"/><path class="cls-1" d="M10.8 71.54l-3.5 2.93-1.6-1.48 2.18-3.62 2.92 2.17zm-3.39-6.22l-.87.34-1.28-.33-3.14-4.27-1.66-3.84.39-.25 6.56 8.35zM.85 56.97l.44-.27 4.56 1.95L9.3 62.2l.82 2.05-2.71 1.07-6.56-8.35z"/><path class="cls-1" d="M7.41 65.32l2.71-1.07.34.84-.83 1.39-1.65-.44-.57-.72zm-7.1-9.03L0 56.15l.46 1.07.39-.25.44-.27-.98-.41z"/><path class="cls-1" d="M11.18 66.88l-1.55-.4.83-1.39.72 1.79zm-3.2-.84l-1.44-.38.87-.34.57.72zM2.74 46.09l1.57 1.26-1.33.33-.24-1.59zm1.05 5.58l-.33-.83-.48-3.16 1.33-.33 2.81 2.25 1.56 2.49-.85.53-4.04-.95z"/><path class="cls-1" d="M10.76 58.86L5.6 56.21l-.7-1.76 2.93-1.83 1.39.33.45.71 1.09 5.2z"/><path class="cls-1" d="M7.83 52.62L4.9 54.45l-1.11-2.78 4.04.95z"/><path class="cls-1" d="M8.68 52.09l.54.86-1.39-.33.85-.53zM4.44 36.97l-.57-2.6.45.4.38.34-.32.69.06 1.17z"/><path class="cls-1" d="M4.7 35.11l4.07 3.67.01.01-1.56 6.57-1.19-1.07-1.59-7.32-.06-1.17.32-.69z"/><path class="cls-1" d="M10.76 43.34l.53 5.69-4.07-3.67 1.56-6.58 1.98 4.56zM7.02 29.89l.24-4.45 1.18 1.58-1.39 3-.03-.13z"/><path class="cls-1" d="M7.05 30.02l1.39-3 2.38 3.15-1.65 6.95-.64-.66-1.48-6.44zm4.09.59l2.05 5.72-.58 4.35-3.44-3.56 1.65-6.95.32.44zm-.23-11.08l.59-4.34 1.17 2.69-1.63 3.52-.13-1.87z"/><path class="cls-1" d="M11.04 21.4l1.63-3.52.69 1.58-1.77 7.47-.19-.3-.36-5.23zm2.32-1.94l1.46 3.37.76 4.25.23 1.3-.12.76-.58 3.59-3.52-5.8 1.77-7.47zm2.44-6.83l.44-4.91h.01l1.64 4.29-2.13 1.22.04-.6z"/><path class="cls-1" d="M19.38 20.72l-.08.3-1.87 1.95-2.1-3.78.43-5.96 2.13-1.22 1.19 3.13.3 5.58z"/><path class="cls-1" d="M17.43 22.97l.82 1.46.17.31.11-.47.77-3.25-1.87 1.95zm6.49-20.1l.04 1.71-.96.32.92-2.03zm-2.51 7.12l.95-3.65L23 4.9l.96-.32.09 3.9-2.64 1.51z"/><path class="cls-1" d="M24.11 10.91l-.48 4.22-1.44 2.88-.41.43-1.07-5.72.7-2.73 2.64-1.51.06 2.43zm-2.27 7.82l-.06-.29.41-.43-.35.72zM29.72 0l-.25 2.76-1.14.38L29.72 0z"/><path class="cls-1" d="M26.61 7.02l1.72-3.88 1.14-.38-.24 2.75-2.62 1.51zm2.6-1.28l-.75 3.66-1.81 3.24-.16-5.35.12-.27 2.62-1.51-.02.23zm7.56-.39l-3.68 3.34-2.75.84L38.67.86l-1.9 4.49z"/><path class="cls-1" d="M31.96 4.9L38.74.69l-.07.17-8.33 8.67-.92.28 2.54-4.91z"/></svg>